<svg xmlns="http://www.w3.org/2000/svg" width="120" height="120">
<path fill="gold" d="M59 3c5.3 2.6 5.3 2.6 7 5 .2 3.2.2 3.2 0 6l-5 1 1 5c4-2.4 4.8-4.7 6-9l1-1 7.6 1c2.4.3 2.4.3 4-1.4L82 8l7-2c3 5.4 3 5.4 2.7 8.4L91 16l2.8 1.7C97 20 98.3 21.6 100 25c-7.3 3.4-7.3 3.4-12 3l3 4c-7.3 4.6-7.3 4.6-12 4l2 3c-.4 2.7-.4 2.7-1 5 4.1-.6 4.1-.6 8-2l-2-5c1-1.5 1-1.5 3-3 2.7-.3 5.3-.1 8 0v8c-1 1-1 1-4 1h-3l9 3v-2l6-1c2.6 3 4.2 5.1 5 9-8 2.4-8 2.4-11.6.9C97 51 97 51 97 47h-9l3.4 1c3.6 1 3.6 1 4.6 2 0 1.8 0 1.8-.3 4l-.3 2.2L95 58l-2 1a23.5 23.5 0 0 1-8-5v-6l-9 1 2.4-.1C81 49 81 49 83 51c.2 2.2.2 2.2.1 4.6v2.5L83 60c-5.3-.3-5.3-.3-8-1-2-2.4-2-2.4-3-5l1-3c-3.8 1.2-5.3 3.5-7.2 6.9-1.5 4-1.3 7.9-1.1 12.1v2.6c-.2 8.7-.2 8.7 3 16.3a18 18 0 0 0 11.7.6c5.5-1 10-1.2 15.2 1.1C97 93 97 93 97.4 96.3L97 99l-2-3a180 180 0 0 0-4-4l2 7-3-1c-1.2-2.6-1.2-2.6-2-5h-6l4 8h-3l-3-5h-2l1 3v8c-1.5-1.1-1.5-1.1-3-3-.2-3.2-.2-3.2 0-6l-2.8-.9c-2.5-.9-4.8-1.8-7.2-3.1l1 1-1 5-.5 2.6L64 109a11 11 0 0 1-1.6-8.8l.3-2.4.3-1.8-4-2c-2 2.9-2 4-1.5 7.5s.4 4.6-1.5 7.5a150.8 150.8 0 0 1-2.6-11.8L53 95l-9 3 .2 2.8c-.2 3.2-.2 3.2-1.7 4.9L41 107l-.1-4.4-.1-2.4C41 98 41 98 43 96c-2 .1-2 .1-4 1-1.8 2.5-1.8 2.5-3 5l-2-1 4-8-6-1-.8 3-1.2 3-3 1 2-7c-3 2-4.6 3.6-6 7-.4-2.8-.4-2.8 0-6 3.3-3.2 6-4.2 10.6-4.3 3.2.1 6.2.6 9.4 1.3 3.9.1 7.3.2 11-1a86.2 86.2 0 0 0 1.3-16.9l.1-2.9c0-6-.5-11.3-4.4-16.2-2-1.2-2-1.2-4-2l.3 2.8c-.3 3.2-.3 3.2-2.5 5A14.9 14.9 0 0 1 37 60v-9l5-2c-1.1-1.4-1.1-1.4-4-1h-3v7l-3.9 2-2.2 1.2-1.9.8-2-1c-.5-1.8-.5-1.8-.8-4l-.2-2c0-2 0-2 2-4l6-1-8 1-.6 2.4C22 53 22 53 19.3 54c-3.6.1-6-.6-9.3-1.9 2.6-6.8 2.6-6.8 6-9 2 .3 2 .3 4 1 3.3 1.1 4.7.8 8 0l-5-1c-.8-3.4-1.1-5.7 0-9 6.4-.4 6.4-.4 9.4 1.5L34 37c-.5 2.2-1 4-2 6l8 1-.8-2.2C39 39 39 39 41.4 36.2L44 34l5 4c-1.1-3-1.7-3.8-4.6-5.3L42 32l-2 4c-6.4-.5-6.4-.5-9.4-3L29 31l2-2-3.8-1c-2.5-.5-4.8-1.2-7.2-2a31 31 0 0 1 5-8c2.2-.8 2.2-.8 4-1l-.7-2.1C28 11 29.1 9.2 31 6c6.8 2.8 6.8 2.8 9 5-.3 3.3-.6 4.6-3 7l3 5 1-3h2l2 7 2.3-2.4C50 22 50 22 53 20l-3.9.1c-2.2.1-2.2.1-4.1-.1-2-2-2-2-2.2-4l.2-6c7.8.8 7.8.8 10 3l.4 2.4c.7 3.2 1.9 4 4.6 5.6l1-6-5-1c-.7-1.8-.7-1.8-1-4 1.2-2 1.2-2 3-3.8l1.7-1.8L59 3Z"/>
<path fill="gold" d="M89 6c3 5.4 3 5.4 2.7 8.4L91 16l2.8 1.7C97 20 98.3 21.6 100 25c-7.3 3.4-7.3 3.4-12 3l3 4c-7.3 4.6-7.3 4.6-12 4l2 3c-.4 2.7-.4 2.7-1 5 4.1-.6 4.1-.6 8-2l-2-5c1-1.5 1-1.5 3-3 2.7-.3 5.3-.1 8 0v8c-1 1-1 1-4 1h-3l9 3v-2l6-1c2.6 3 4.2 5.1 5 9-8 2.4-8 2.4-11.6.9C97 51 97 51 97 47h-9l3.4 1c3.6 1 3.6 1 4.6 2 0 1.8 0 1.8-.3 4l-.3 2.2L95 58l-2 1a23.5 23.5 0 0 1-8-5v-6l-9 1 2.4-.1C81 49 81 49 83 51c.2 2.2.2 2.2.1 4.6v2.5L83 60c-5.3-.3-5.3-.3-8-1-2-2.4-2-2.4-3-5l1-3c-2.5 1.2-4 2-6 4h-4l3-11h-2l-1 5h-1c-.2-10.6-.2-10.6 1-15l-2 1c-1-8.5-1-8.5 1.3-12.2A55 55 0 0 1 67 18l2 1h6l3-7h2l.7-1.9C82.7 7 85.3 6 89 6ZM31 6c6.8 2.8 6.8 2.8 9 5-.3 3.3-.6 4.6-3 7l3 5 1-3h2l2 7 2.2-2.4c4-3.7 4-3.7 7.8-3.6 2.3 1.3 2.3 1.3 4 4 .3 3.4.2 6.6 0 10l-3-1 1 1.9A28 28 0 0 1 55 57l-4.5-3.8C49 51.9 49 51.9 47 51l.3 2.8c-.3 3.2-.3 3.2-2.5 5A14.9 14.9 0 0 1 37 60v-9l5-2c-1.1-1.4-1.1-1.4-4-1h-3v7l-3.9 2-2.2 1.2-1.9.8-2-1c-.5-1.8-.5-1.8-.8-4l-.2-2c0-2 0-2 2-4l6-1-8 1-.6 2.4C22 53 22 53 19.3 54c-3.6.1-6-.6-9.3-1.9 2.6-6.8 2.6-6.8 6-9 2 .3 2 .3 4 1 3.3 1.1 4.7.8 8 0l-5-1c-.8-3.4-1.1-5.7 0-9 6.4-.4 6.4-.4 9.4 1.5L34 37c-.5 2.2-1 4-2 6l8 1-.8-2.2C39 39 39 39 41.4 36.2L44 34l5 4c-1.1-3-1.7-3.8-4.6-5.3L42 32l-2 4c-6.4-.5-6.4-.5-9.4-3L29 31l2-2-3.8-1c-2.5-.5-4.8-1.2-7.2-2a31 31 0 0 1 5-8c2.2-.8 2.2-.8 4-1l-.7-2.1C28 11 29.1 9.2 31 6Z"/>
<path fill="gold" d="M31 6c6.8 2.8 6.8 2.8 9 5-.3 3.3-.6 4.6-3 7l3 5 1-3h2l.8 3.2c1 3.6 2.8 5.9 5.2 8.8l-1 3-6-3-2 4c-6.4-.5-6.4-.5-9.4-3L29 31l2-2-3.8-1c-2.5-.5-4.8-1.2-7.2-2a31 31 0 0 1 5-8c2.2-.8 2.2-.8 4-1l-.7-2.1C28 11 29.1 9.2 31 6ZM89 6c3 5.4 3 5.4 2.7 8.4L91 16l2.8 1.7C97 20 98.3 21.6 100 25c-6.6 3.9-12.5 3-20 2l-2 3-5-1-.7-2.8c-1.5-3.7-2.8-4.5-6.3-6.2l2-2 1 1h6l3-7h2l.7-1.9C82.7 7 85.3 6 89 6ZM23 34c6.4-.4 6.4-.4 9.4 1.5L34 37c-.5 2.2-1 4-2 6l12 3v3l-9-1v7l-3.9 2-2.2 1.2-1.9.8-2-1c-.5-1.8-.5-1.8-.8-4l-.2-2c0-2 0-2 2-4l6-1-8 1-.6 2.4C22 53 22 53 19.3 54c-3.6.1-6-.6-9.3-1.9 2.6-6.8 2.6-6.8 6-9 2 .3 2 .3 4 1 3.3 1.1 4.7.8 8 0l-5-1c-.8-3.4-1.1-5.7 0-9ZM97 34v8c-1 1-1 1-4 1h-3l9 3v-2l6-1c2.6 3 4.2 5.1 5 9-8 2.4-8 2.4-11.6.9C97 51 97 51 97 47h-9l3.4 1c3.6 1 3.6 1 4.6 2 0 1.8 0 1.8-.3 4l-.3 2.2L95 58l-2 1a23.5 23.5 0 0 1-8-5v-6l-6-2c3-1.5 6-2.8 9-4l-2-5c2.8-4.2 6.5-3.2 11-3Z"/>
<path fill="gold" d="M78 32c3.5 7.2 3.5 7.2 2 12l-.5 2.3C79 48 79 48 78 49l2 .4c2 .6 2 .6 3 1.6v9c-5.3-.3-5.3-.3-8-1-2-2.4-2-2.4-3-5l1-3c-2.5 1.2-4 2-6 4h-4c6-23 6-23 15-23ZM31 6c6.8 2.8 6.8 2.8 9 5-.3 3.3-.6 4.6-3 7 3 6.3 3 6.3 7 12h-3l-2-3c-3-.3-3-.3-6 0v-4l2-1-3-1-1-4-3-1c.5-3.7 1.1-6.7 3-10ZM89 6c3 5.4 3 5.4 2.8 8.3C91 16 91 16 90 17h-5l.3 2.3L85 22c-2.5 1.8-2.5 1.8-5 3l1-2.3c1.4-3.7.6-5.4-1-9L79 12c2.5-4 5.2-6 10-6Z"/>
<path fill="rgb(0, 75, 0)" d="M54 21a14 14 0 0 1 5 4c.4 3.4.3 6.6 0 10l-3-1 1 1.9c1.4 4.4 1.2 8.5 1 13.1a64.3 64.3 0 0 1-4.7-8.4l-1.4-3c-1-2.7-1-3.9.1-6.6h4c-.5-3.4-1.1-6.7-2-10Z"/>
<path fill="gold" d="m43.2 49.4 2.8.6 1 7c-3.5 2.4-5.7 3.4-10 3l-.2-4.4v-2.4L37 51c3-2 3-2 6.2-1.6Z"/>
<path fill="rgb(0, 75, 0)" d="M65 20c1 2 1 2 .4 4l-.8 2.1-1 2.2c-.1.6-.4 1.1-.6 1.7l6 2c-1.9 5.7-3.9 11.4-6 17h-1c-.2-10.6-.2-10.6 1-15l-2 1c-.6-9-.6-9 2-13.1l2-1.9ZM78 12c2.6 2.3 2.6 2.3 5 5 0 2.8-.7 3.7-2.6 5.8L79 24v-4h-3l.8 2.3.2 2.7c-2 2.3-2 2.3-4 4l-.7-2.8c-1.5-3.7-2.8-4.5-6.3-6.2l2-2 1 1h6l3-7Z"/>
<path fill="gold" d="M76 34c2.6 2.2 2.6 2.2 5 5-.2 2.8-.2 2.8-1 5-4 1.2-6.2.8-10-1 .3-3.7.8-4.8 3.6-7.3L76 34ZM43 34c5.8 3.3 5.8 3.3 6.9 6.8L50 43l-2 .4-2 .6-1 2c-2.4-.7-2.4-.7-5-2-1-2.3-1-2.3-1-5 2-2.8 2-2.8 4-5ZM80 26c6.4.4 6.4.4 9.4 3.6L91 32c-6.3 4-6.3 4-10 3.8l-2-.8c-.6-2.8-.6-2.8-1-6l2-3ZM74 51c3-.4 6-.1 9 0v9c-5.4-.3-5.4-.3-8-1-2-2.6-2-2.6-3-5l2-3ZM54 21c3 5.4 3 5.4 2.7 8.4L56 31c-5.5-.4-5.5-.4-8-1-1.5-2-1.5-2-2-4 4.8-5 4.8-5 8-5Z"/>
<path fill="rgb(0, 75, 0)" d="M78 32c-1 3-1 3-3.5 4.4-2.7 1.4-2.7 1.4-3.3 4.3L71 43l3 2-3 3v-2c-3 2.6-4.9 5.7-7 9l-1-2a135.3 135.3 0 0 1 4.1-10.7C71.4 32 71.4 32 78 32Z"/>
<path fill="gold" d="M76 20h3l2 4 5-1 1 4-3.4-.2-3.6.2-2 3-4-1 1-1.7c1.1-2.6 1.2-4.5 1-7.3Z"/>
<path fill="rgb(0, 75, 0)" d="M50 40c2.3 2.8 4 5.5 5 9l-1 3-1.4-2.4c-1.3-2.7-1.3-2.7-3.6-3.6l-1 2-2-4 3-1 1-3Z"/>
<path fill="gold" d="m46 28 7 2-.6 2.2c-.4 3-.1 5 .6 7.8h-3l-4-12Z"/>
<path fill="rgb(0, 75, 0)" d="M33 23c5 .4 7.4 2.7 11 6l-3 1-2-3c-3-.3-3-.3-6 0v-4ZM82 23h4l1 4-7-1 2-3Z"/></svg>