<?xml version="1.0" encoding="UTF-8"?>
<svg version="1.1" xmlns="http://www.w3.org/2000/svg" width="120" height="120">
<path d="M0 0 C5.26086957 2.56521739 5.26086957 2.56521739 7 5 C7.1875 8.1875 7.1875 8.1875 7 11 C5.35 11.33 3.7 11.66 2 12 C2.495 14.475 2.495 14.475 3 17 C6.94556644 14.63266014 7.77144227 12.34720427 9 8 C9.33 7.67 9.66 7.34 10 7 C12.5334383 7.2633323 15.03765161 7.65013276 17.5546875 8.0390625 C20.04759846 8.26398656 20.04759846 8.26398656 21.58984375 6.59765625 C22.05519531 6.07042969 22.52054687 5.54320312 23 5 C25.30988315 4.25613932 27.64315944 3.57809297 30 3 C33.07692308 8.41538462 33.07692308 8.41538462 32.6875 11.375 C32.460625 11.91125 32.23375 12.4475 32 13 C32.928125 13.556875 33.85625 14.11375 34.8125 14.6875 C37.9419407 16.95787855 39.29754051 18.59508103 41 22 C33.71428571 25.42857143 33.71428571 25.42857143 29 25 C29.99 26.32 30.98 27.64 32 29 C24.71428571 33.57142857 24.71428571 33.57142857 20 33 C20.66 33.99 21.32 34.98 22 36 C21.625 38.6875 21.625 38.6875 21 41 C25.12973628 40.43260132 25.12973628 40.43260132 29 39 C28.01 36.525 28.01 36.525 27 34 C28 32.5 28 32.5 30 31 C32.71846235 30.72654521 35.25677199 30.86508715 38 31 C38.09765625 37.15234375 38.09765625 37.15234375 38 39 C37 40 37 40 33.9375 40.0625 C32.968125 40.041875 31.99875 40.02125 31 40 C33.97 40.99 36.94 41.98 40 43 C40 42.34 40 41.68 40 41 C41.98 40.67 43.96 40.34 46 40 C48.57189568 42.98671756 50.21616433 45.13857796 51 49 C42.91446577 51.40147277 42.91446577 51.40147277 39.4375 49.875 C38 48 38 48 38 44 C35.03 44 32.06 44 29 44 C30.134375 44.309375 31.26875 44.61875 32.4375 44.9375 C36 46 36 46 37 47 C36.94921875 48.8125 36.94921875 48.8125 36.6875 51 C36.60886719 51.721875 36.53023438 52.44375 36.44921875 53.1875 C36.22685547 54.0846875 36.22685547 54.0846875 36 55 C35.01 55.495 35.01 55.495 34 56 C30.85240898 54.62292893 28.43840236 53.43840236 26 51 C25.875 47.875 25.875 47.875 26 45 C21.545 45.495 21.545 45.495 17 46 C18.175625 45.938125 18.175625 45.938125 19.375 45.875 C22 46 22 46 24 48 C24.1953125 50.1640625 24.1953125 50.1640625 24.125 52.625 C24.10695313 53.44226562 24.08890625 54.25953125 24.0703125 55.1015625 C24.04710938 55.72804687 24.02390625 56.35453125 24 57 C18.70251618 56.73946801 18.70251618 56.73946801 16 56 C13.9375 53.625 13.9375 53.625 13 51 C13.33 50.01 13.66 49.02 14 48 C10.24629279 49.20654875 8.69173551 51.4859197 6.83349609 54.86694336 C5.28518327 58.8293362 5.54661656 62.80480418 5.6875 67 C5.69716797 67.86367187 5.70683594 68.72734375 5.71679688 69.6171875 C5.48397258 78.31182388 5.48397258 78.31182388 8.625 85.9375 C12.52826449 87.68369727 16.24758602 87.36892926 20.375 86.5 C25.89246504 85.44905428 30.39264232 85.2668193 35.5625 87.625 C38 90 38 90 38.375 93.25 C38.189375 94.61125 38.189375 94.61125 38 96 C37.34 95.01 36.68 94.02 36 93 C34.68612831 91.64748503 33.35573748 90.31054623 32 89 C32.99 92.465 32.99 92.465 34 96 C32.515 95.505 32.515 95.505 31 95 C29.8125 92.4375 29.8125 92.4375 29 90 C27.02 90 25.04 90 23 90 C24.32 92.64 25.64 95.28 27 98 C26.01 98 25.02 98 24 98 C22.96986723 96.35178756 21.96885372 94.68496298 21 93 C20.34 93 19.68 93 19 93 C19.33 93.99 19.66 94.98 20 96 C20.12781786 98.67394964 20.04391871 101.32095857 20 104 C18.5 102.875 18.5 102.875 17 101 C16.8125 97.8125 16.8125 97.8125 17 95 C16.0925 94.71125 15.185 94.4225 14.25 94.125 C11.67797092 93.23468224 9.38653234 92.28505587 7 91 C7.33 91.33 7.66 91.66 8 92 C7.72057545 93.67654729 7.37668344 95.34259285 7 97 C6.835 97.845625 6.67 98.69125 6.5 99.5625 C6.05603875 101.72681111 5.55437257 103.86170582 5 106 C3.0921416 102.8250906 2.8390959 100.89414789 3.375 97.25 C3.48585937 96.45078125 3.59671875 95.6515625 3.7109375 94.828125 C3.80632813 94.22484375 3.90171875 93.6215625 4 93 C2.68 92.34 1.36 91.68 0 91 C-1.94674828 93.86286512 -2.00366144 94.97436989 -1.5 98.5 C-0.99633856 102.02563011 -1.05325172 103.13713488 -3 106 C-3.77344481 103.01671289 -4.40982952 100.0246237 -5 97 C-5.185625 96.071875 -5.37125 95.14375 -5.5625 94.1875 C-5.706875 93.465625 -5.85125 92.74375 -6 92 C-8.97 92.99 -11.94 93.98 -15 95 C-14.938125 95.928125 -14.87625 96.85625 -14.8125 97.8125 C-15 101 -15 101 -16.51171875 102.69921875 C-17.24841797 103.34310547 -17.24841797 103.34310547 -18 104 C-18.05399736 102.54207116 -18.09279177 101.08357288 -18.125 99.625 C-18.14820312 98.81289062 -18.17140625 98.00078125 -18.1953125 97.1640625 C-18 95 -18 95 -16 93 C-17.91466367 93.12177688 -17.91466367 93.12177688 -20 94 C-21.77148372 96.47933197 -21.77148372 96.47933197 -23 99 C-23.66 98.67 -24.32 98.34 -25 98 C-23.66666667 95.33333333 -22.33333333 92.66666667 -21 90 C-22.98 89.67 -24.96 89.34 -27 89 C-27.268125 89.969375 -27.53625 90.93875 -27.8125 91.9375 C-28.204375 92.948125 -28.59625 93.95875 -29 95 C-30.485 95.495 -30.485 95.495 -32 96 C-31.34 93.69 -30.68 91.38 -30 89 C-33.0210714 91.0140476 -34.60667426 92.63279613 -36 96 C-36.375 93.25 -36.375 93.25 -36 90 C-32.6735511 86.75884467 -29.97219699 85.75574795 -25.4375 85.6875 C-22.19745523 85.83354542 -19.17312883 86.33197288 -16 87 C-12.14951469 87.13510475 -8.68929799 87.18057536 -5 86 C-3.83595702 80.37852416 -3.74489694 74.84173571 -3.6875 69.125 C-3.65849609 68.16980469 -3.62949219 67.21460937 -3.59960938 66.23046875 C-3.5456266 60.17609258 -4.07587279 54.86106127 -8 50 C-10.05443302 48.77897145 -10.05443302 48.77897145 -12 48 C-11.8453125 49.3921875 -11.8453125 49.3921875 -11.6875 50.8125 C-12 54 -12 54 -14.1875 55.875 C-17.05518499 57.022074 -18.94840693 57.26156512 -22 57 C-22 54.03 -22 51.06 -22 48 C-20.35 47.34 -18.7 46.68 -17 46 C-18.12534105 44.64381501 -18.12534105 44.64381501 -21.0625 44.9375 C-22.031875 44.958125 -23.00125 44.97875 -24 45 C-24 47.31 -24 49.62 -24 52 C-25.28650706 52.69710731 -26.57940665 53.38242876 -27.875 54.0625 C-28.95394531 54.63677734 -28.95394531 54.63677734 -30.0546875 55.22265625 C-30.69664063 55.47917969 -31.33859375 55.73570313 -32 56 C-32.66 55.67 -33.32 55.34 -34 55 C-34.484375 53.22265625 -34.484375 53.22265625 -34.75 51.0625 C-34.84796875 50.35222656 -34.9459375 49.64195313 -35.046875 48.91015625 C-35 47 -35 47 -33 45 C-31.01178687 44.60235737 -29.01055661 44.26224651 -27 44 C-29.64 44.33 -32.28 44.66 -35 45 C-35.20625 45.804375 -35.4125 46.60875 -35.625 47.4375 C-37 50 -37 50 -39.75 50.9375 C-43.28551249 51.00549062 -45.74034203 50.31938537 -49 49 C-46.375 42.25 -46.375 42.25 -43 40 C-41 40.3125 -41 40.3125 -39 41 C-35.71023192 42.09658936 -34.28696233 41.79953138 -31 41 C-32.65 40.67 -34.3 40.34 -36 40 C-36.84454356 36.62182575 -37.10844919 34.32534757 -36 31 C-29.6 30.63076923 -29.6 30.63076923 -26.5625 32.5 C-26.046875 32.995 -25.53125 33.49 -25 34 C-25.50603992 36.16874252 -25.99983813 37.99967627 -27 40 C-24.36 40.33 -21.72 40.66 -19 41 C-19.268125 40.278125 -19.53625 39.55625 -19.8125 38.8125 C-20 36 -20 36 -17.5625 33.1875 C-16.716875 32.465625 -15.87125 31.74375 -15 31 C-12.525 32.98 -12.525 32.98 -10 35 C-11.0975223 32.00675737 -11.67682892 31.15389099 -14.625 29.75 C-15.40875 29.5025 -16.1925 29.255 -17 29 C-17.66 30.32 -18.32 31.64 -19 33 C-25.4 32.50769231 -25.4 32.50769231 -28.4375 29.9375 C-29.2109375 28.9784375 -29.2109375 28.9784375 -30 28 C-29.34 27.34 -28.68 26.68 -28 26 C-29.258125 25.690625 -30.51625 25.38125 -31.8125 25.0625 C-34.26177394 24.46021952 -36.60265923 23.79911359 -39 23 C-37.6273219 20.04346256 -36.18311636 17.4350144 -34 15 C-31.8125 14.25 -31.8125 14.25 -30 14 C-30.3403125 12.948125 -30.3403125 12.948125 -30.6875 11.875 C-31.09532639 8.12299725 -29.86377293 6.20568943 -28 3 C-21.25 5.75 -21.25 5.75 -19 8 C-19.32971479 11.29714793 -19.6226839 12.6226839 -22 15 C-21.01 16.65 -20.02 18.3 -19 20 C-18.67 19.01 -18.34 18.02 -18 17 C-17.34 17 -16.68 17 -16 17 C-15.34 19.31 -14.68 21.62 -14 24 C-13.236875 23.21625 -12.47375 22.4325 -11.6875 21.625 C-9 19 -9 19 -6 17 C-7.918125 17.061875 -7.918125 17.061875 -9.875 17.125 C-12.0546875 17.1953125 -12.0546875 17.1953125 -14 17 C-16 15 -16 15 -16.1953125 13.0546875 C-16.13020833 11.03645833 -16.06510417 9.01822917 -16 7 C-8.25 7.75 -8.25 7.75 -6 10 C-5.87625 10.804375 -5.7525 11.60875 -5.625 12.4375 C-4.85225421 15.60575772 -3.71923843 16.33336999 -1 18 C-0.67 16.02 -0.34 14.04 0 12 C-2.475 11.505 -2.475 11.505 -5 11 C-5.68359375 9.234375 -5.68359375 9.234375 -6 7 C-4.78515625 5.078125 -4.78515625 5.078125 -3.0625 3.25 C-2.49660156 2.63640625 -1.93070313 2.0228125 -1.34765625 1.390625 C-0.68056641 0.70226562 -0.68056641 0.70226562 0 0 Z " fill="#FFD700" transform="translate(59,3)"/>
<path d="M0 0 C3.07692308 5.41538462 3.07692308 5.41538462 2.6875 8.375 C2.460625 8.91125 2.23375 9.4475 2 10 C2.928125 10.556875 3.85625 11.11375 4.8125 11.6875 C7.9419407 13.95787855 9.29754051 15.59508103 11 19 C3.71428571 22.42857143 3.71428571 22.42857143 -1 22 C-0.01 23.32 0.98 24.64 2 26 C-5.28571429 30.57142857 -5.28571429 30.57142857 -10 30 C-9.34 30.99 -8.68 31.98 -8 33 C-8.375 35.6875 -8.375 35.6875 -9 38 C-4.87026372 37.43260132 -4.87026372 37.43260132 -1 36 C-1.66 34.35 -2.32 32.7 -3 31 C-2 29.5 -2 29.5 0 28 C2.71846235 27.72654521 5.25677199 27.86508715 8 28 C8.09765625 34.15234375 8.09765625 34.15234375 8 36 C7 37 7 37 3.9375 37.0625 C2.968125 37.041875 1.99875 37.02125 1 37 C3.97 37.99 6.94 38.98 10 40 C10 39.34 10 38.68 10 38 C12.97 37.505 12.97 37.505 16 37 C18.57189568 39.98671756 20.21616433 42.13857796 21 46 C12.91446577 48.40147277 12.91446577 48.40147277 9.4375 46.875 C8 45 8 45 8 41 C5.03 41 2.06 41 -1 41 C0.134375 41.309375 1.26875 41.61875 2.4375 41.9375 C6 43 6 43 7 44 C6.94921875 45.8125 6.94921875 45.8125 6.6875 48 C6.60886719 48.721875 6.53023437 49.44375 6.44921875 50.1875 C6.30097656 50.785625 6.15273437 51.38375 6 52 C5.01 52.495 5.01 52.495 4 53 C0.85240898 51.62292893 -1.56159764 50.43840236 -4 48 C-4.125 44.875 -4.125 44.875 -4 42 C-8.455 42.495 -8.455 42.495 -13 43 C-11.824375 42.938125 -11.824375 42.938125 -10.625 42.875 C-8 43 -8 43 -6 45 C-5.8046875 47.1640625 -5.8046875 47.1640625 -5.875 49.625 C-5.89304687 50.44226562 -5.91109375 51.25953125 -5.9296875 52.1015625 C-5.95289062 52.72804687 -5.97609375 53.35453125 -6 54 C-11.29748382 53.73946801 -11.29748382 53.73946801 -14 53 C-16.0625 50.625 -16.0625 50.625 -17 48 C-16.67 47.01 -16.34 46.02 -16 45 C-18.46800047 46.15173355 -20.04783565 47.04783565 -22 49 C-23.32 49 -24.64 49 -26 49 C-25.01 45.37 -24.02 41.74 -23 38 C-23.66 38 -24.32 38 -25 38 C-25.495 40.475 -25.495 40.475 -26 43 C-26.33 43 -26.66 43 -27 43 C-27.18451025 32.44191344 -27.18451025 32.44191344 -26 28 C-26.66 28.33 -27.32 28.66 -28 29 C-28.92017937 20.5309417 -28.92017937 20.5309417 -26.6640625 16.77734375 C-25.18027954 15.08109421 -23.67546697 13.50592567 -22 12 C-21.34 12.33 -20.68 12.66 -20 13 C-18.00039988 13.039992 -15.99952758 13.04346799 -14 13 C-13.01 10.69 -12.02 8.38 -11 6 C-10.34 6 -9.68 6 -9 6 C-8.773125 5.38125 -8.54625 4.7625 -8.3125 4.125 C-6.36599536 0.97351629 -3.66041994 0 0 0 Z " fill="#FFD700" transform="translate(89,6)"/>
<path d="M0 0 C6.75 2.75 6.75 2.75 9 5 C8.67028521 8.29714793 8.3773161 9.6226839 6 12 C6.99 13.65 7.98 15.3 9 17 C9.33 16.01 9.66 15.02 10 14 C10.66 14 11.32 14 12 14 C12.66 16.31 13.32 18.62 14 21 C14.721875 20.195625 15.44375 19.39125 16.1875 18.5625 C20.20437956 14.9026764 20.20437956 14.9026764 24 15 C26.3125 16.3125 26.3125 16.3125 28 19 C28.33127136 22.36003806 28.23115097 25.63546928 28 29 C27.01 28.67 26.02 28.34 25 28 C25.495 28.928125 25.495 28.928125 26 29.875 C28.40644935 37.39515421 27.13825388 43.93892876 24 51 C22.50260417 49.73046875 21.00520833 48.4609375 19.5078125 47.19140625 C17.99405921 45.9121848 17.99405921 45.9121848 16 45 C16.1546875 46.3921875 16.1546875 46.3921875 16.3125 47.8125 C16 51 16 51 13.8125 52.875 C10.94481501 54.022074 9.05159307 54.26156512 6 54 C6 51.03 6 48.06 6 45 C7.65 44.34 9.3 43.68 11 43 C9.87465895 41.64381501 9.87465895 41.64381501 6.9375 41.9375 C5.968125 41.958125 4.99875 41.97875 4 42 C4 44.31 4 46.62 4 49 C2.71349294 49.69710731 1.42059335 50.38242876 0.125 51.0625 C-0.95394531 51.63677734 -0.95394531 51.63677734 -2.0546875 52.22265625 C-2.69664063 52.47917969 -3.33859375 52.73570313 -4 53 C-4.66 52.67 -5.32 52.34 -6 52 C-6.484375 50.22265625 -6.484375 50.22265625 -6.75 48.0625 C-6.84796875 47.35222656 -6.9459375 46.64195313 -7.046875 45.91015625 C-7 44 -7 44 -5 42 C-3.01178687 41.60235737 -1.01055661 41.26224651 1 41 C-1.64 41.33 -4.28 41.66 -7 42 C-7.20625 42.804375 -7.4125 43.60875 -7.625 44.4375 C-9 47 -9 47 -11.75 47.9375 C-15.28551249 48.00549062 -17.74034203 47.31938537 -21 46 C-18.375 39.25 -18.375 39.25 -15 37 C-13 37.3125 -13 37.3125 -11 38 C-7.71023192 39.09658936 -6.28696233 38.79953138 -3 38 C-4.65 37.67 -6.3 37.34 -8 37 C-8.84454356 33.62182575 -9.10844919 31.32534757 -8 28 C-1.6 27.63076923 -1.6 27.63076923 1.4375 29.5 C1.953125 29.995 2.46875 30.49 3 31 C2.49396008 33.16874252 2.00016187 34.99967627 1 37 C3.64 37.33 6.28 37.66 9 38 C8.731875 37.278125 8.46375 36.55625 8.1875 35.8125 C8 33 8 33 10.4375 30.1875 C11.283125 29.465625 12.12875 28.74375 13 28 C15.475 29.98 15.475 29.98 18 32 C16.9024777 29.00675737 16.32317108 28.15389099 13.375 26.75 C12.59125 26.5025 11.8075 26.255 11 26 C10.34 27.32 9.68 28.64 9 30 C2.6 29.50769231 2.6 29.50769231 -0.4375 26.9375 C-1.2109375 25.9784375 -1.2109375 25.9784375 -2 25 C-1.34 24.34 -0.68 23.68 0 23 C-1.258125 22.690625 -2.51625 22.38125 -3.8125 22.0625 C-6.26177394 21.46021952 -8.60265923 20.79911359 -11 20 C-9.6273219 17.04346256 -8.18311636 14.4350144 -6 12 C-3.8125 11.25 -3.8125 11.25 -2 11 C-2.3403125 9.948125 -2.3403125 9.948125 -2.6875 8.875 C-3.09532639 5.12299725 -1.86377293 3.20568943 0 0 Z " fill="#FFD700" transform="translate(31,6)"/>
<path d="M0 0 C6.75 2.75 6.75 2.75 9 5 C8.67028521 8.29714793 8.3773161 9.6226839 6 12 C6.99 13.65 7.98 15.3 9 17 C9.33 16.01 9.66 15.02 10 14 C10.66 14 11.32 14 12 14 C12.2475 15.051875 12.495 16.10375 12.75 17.1875 C13.76049536 20.83855989 15.62922574 23.05696989 18 26 C17.67 26.99 17.34 27.98 17 29 C15.02 28.01 13.04 27.02 11 26 C10.34 27.32 9.68 28.64 9 30 C2.6 29.50769231 2.6 29.50769231 -0.4375 26.9375 C-1.2109375 25.9784375 -1.2109375 25.9784375 -2 25 C-1.34 24.34 -0.68 23.68 0 23 C-1.258125 22.690625 -2.51625 22.38125 -3.8125 22.0625 C-6.26177394 21.46021952 -8.60265923 20.79911359 -11 20 C-9.6273219 17.04346256 -8.18311636 14.4350144 -6 12 C-3.8125 11.25 -3.8125 11.25 -2 11 C-2.3403125 9.948125 -2.3403125 9.948125 -2.6875 8.875 C-3.09532639 5.12299725 -1.86377293 3.20568943 0 0 Z " fill="#FFD700" transform="translate(31,6)"/>
<path d="M0 0 C3.07692308 5.41538462 3.07692308 5.41538462 2.6875 8.375 C2.460625 8.91125 2.23375 9.4475 2 10 C2.928125 10.556875 3.85625 11.11375 4.8125 11.6875 C7.9419407 13.95787855 9.29754051 15.59508103 11 19 C4.35138925 22.86547137 -1.549208 21.92994848 -9 21 C-9.66 21.99 -10.32 22.98 -11 24 C-12.65 23.67 -14.3 23.34 -16 23 C-16.3403125 21.6078125 -16.3403125 21.6078125 -16.6875 20.1875 C-18.2088437 16.49280817 -19.46352496 15.67517239 -23 14 C-22.34 13.34 -21.68 12.68 -21 12 C-20.67 12.33 -20.34 12.66 -20 13 C-18.00041636 13.04080783 -15.99954746 13.04254356 -14 13 C-13.01 10.69 -12.02 8.38 -11 6 C-10.34 6 -9.68 6 -9 6 C-8.773125 5.38125 -8.54625 4.7625 -8.3125 4.125 C-6.36599536 0.97351629 -3.66041994 0 0 0 Z " fill="#FFD700" transform="translate(89,6)"/>
<path d="M0 0 C6.4 -0.36923077 6.4 -0.36923077 9.4375 1.5 C9.953125 1.995 10.46875 2.49 11 3 C10.49396008 5.16874252 10.00016187 6.99967627 9 9 C14.94 10.485 14.94 10.485 21 12 C21 12.99 21 13.98 21 15 C18.03 14.67 15.06 14.34 12 14 C12 16.31 12 18.62 12 21 C10.71349294 21.69710731 9.42059335 22.38242876 8.125 23.0625 C7.04605469 23.63677734 7.04605469 23.63677734 5.9453125 24.22265625 C5.30335937 24.47917969 4.66140625 24.73570313 4 25 C3.34 24.67 2.68 24.34 2 24 C1.515625 22.22265625 1.515625 22.22265625 1.25 20.0625 C1.15203125 19.35222656 1.0540625 18.64195313 0.953125 17.91015625 C1 16 1 16 3 14 C4.98821313 13.60235737 6.98944339 13.26224651 9 13 C6.36 13.33 3.72 13.66 1 14 C0.79375 14.804375 0.5875 15.60875 0.375 16.4375 C-1 19 -1 19 -3.75 19.9375 C-7.28551249 20.00549062 -9.74034203 19.31938537 -13 18 C-10.375 11.25 -10.375 11.25 -7 9 C-5 9.3125 -5 9.3125 -3 10 C0.28976808 11.09658936 1.71303767 10.79953138 5 10 C2.525 9.505 2.525 9.505 0 9 C-0.84454356 5.62182575 -1.10844919 3.32534757 0 0 Z " fill="#FFD700" transform="translate(23,34)"/>
<path d="M0 0 C0.09765625 6.15234375 0.09765625 6.15234375 0 8 C-1 9 -1 9 -4.0625 9.0625 C-5.031875 9.041875 -6.00125 9.02125 -7 9 C-4.03 9.99 -1.06 10.98 2 12 C2 11.34 2 10.68 2 10 C3.98 9.67 5.96 9.34 8 9 C10.57189568 11.98671756 12.21616433 14.13857796 13 18 C4.91446577 20.40147277 4.91446577 20.40147277 1.4375 18.875 C0 17 0 17 0 13 C-2.97 13 -5.94 13 -9 13 C-7.865625 13.309375 -6.73125 13.61875 -5.5625 13.9375 C-2 15 -2 15 -1 16 C-1.05078125 17.8125 -1.05078125 17.8125 -1.3125 20 C-1.43044922 21.0828125 -1.43044922 21.0828125 -1.55078125 22.1875 C-1.69902344 22.785625 -1.84726563 23.38375 -2 24 C-2.66 24.33 -3.32 24.66 -4 25 C-7.14759102 23.62292893 -9.56159764 22.43840236 -12 20 C-12.125 16.875 -12.125 16.875 -12 14 C-13.98 13.34 -15.96 12.68 -18 12 C-15.06279492 10.47700477 -12.0831351 9.19899698 -9 8 C-9.66 6.35 -10.32 4.7 -11 3 C-8.21756596 -1.17365106 -4.53441502 -0.22300402 0 0 Z " fill="#FFD700" transform="translate(97,34)"/>
<path d="M0 0 C3.54586858 7.23357189 3.54586858 7.23357189 2 12 C1.835 12.7425 1.67 13.485 1.5 14.25 C1 16 1 16 0 17 C0.9590625 17.2165625 0.9590625 17.2165625 1.9375 17.4375 C4 18 4 18 5 19 C5.07179964 20.51928038 5.08392007 22.04167482 5.0625 23.5625 C5.05347656 24.38878906 5.04445313 25.21507813 5.03515625 26.06640625 C5.02355469 26.70449219 5.01195313 27.34257813 5 28 C-0.29748382 27.73946801 -0.29748382 27.73946801 -3 27 C-5.0625 24.625 -5.0625 24.625 -6 22 C-5.67 21.01 -5.34 20.02 -5 19 C-7.46800047 20.15173355 -9.04783565 21.04783565 -11 23 C-12.32 23 -13.64 23 -15 23 C-8.98085106 0 -8.98085106 0 0 0 Z " fill="#FFD700" transform="translate(78,32)"/>
<path d="M0 0 C6.75 2.75 6.75 2.75 9 5 C8.67028521 8.29714793 8.3773161 9.6226839 6 12 C8.99715719 18.30347455 8.99715719 18.30347455 13 24 C12.01 24 11.02 24 10 24 C9.34 23.01 8.68 22.02 8 21 C4.91634129 20.7497843 4.91634129 20.7497843 2 21 C2 19.68 2 18.36 2 17 C2.66 16.67 3.32 16.34 4 16 C3.01 15.67 2.02 15.34 1 15 C0.66666667 13.66666667 0.33333333 12.33333333 0 11 C-0.99 10.67 -1.98 10.34 -3 10 C-2.49287967 6.28111761 -1.88391785 3.26545761 0 0 Z " fill="#FFD700" transform="translate(31,6)"/>
<path d="M0 0 C3.0653951 5.39509537 3.0653951 5.39509537 2.75 8.3125 C2 10 2 10 1 11 C-0.66617115 11.04063832 -2.33388095 11.042721 -4 11 C-3.896875 11.763125 -3.79375 12.52625 -3.6875 13.3125 C-3.790625 14.199375 -3.89375 15.08625 -4 16 C-6.5 17.8125 -6.5 17.8125 -9 19 C-8.649375 18.2575 -8.29875 17.515 -7.9375 16.75 C-6.64280941 12.95224093 -7.39883734 11.27305033 -9.0625 7.75 C-9.371875 7.1725 -9.68125 6.595 -10 6 C-7.52649177 2.09446069 -4.76346611 0 0 0 Z " fill="#FFD700" transform="translate(89,6)"/>
<path d="M0 0 C2.5 1.375 2.5 1.375 5 4 C5.44908891 7.37080851 5.29036649 10.61884349 5 14 C4.01 13.67 3.02 13.34 2 13 C2.495 13.928125 2.495 13.928125 3 14.875 C4.40387684 19.26211512 4.15967523 23.43151427 4 28 C2.15670166 25.23505248 0.73217468 22.56049496 -0.6875 19.5625 C-1.14511719 18.61503906 -1.60273437 17.66757812 -2.07421875 16.69140625 C-3.04593279 13.86646543 -3.06635417 12.73374433 -2 10 C-0.68 10 0.64 10 2 10 C1.46274105 6.62294375 0.88935377 3.303314 0 0 Z " fill="#2E7D32" transform="translate(54,21)"/>
<path d="M0 0 C0.928125 0.20625 1.85625 0.4125 2.8125 0.625 C3.1425 2.935 3.4725 5.245 3.8125 7.625 C0.30062804 10.03314077 -1.91406908 10.99129408 -6.1875 10.625 C-6.26846803 9.16757537 -6.32667774 7.70887193 -6.375 6.25 C-6.40980469 5.43789063 -6.44460937 4.62578125 -6.48046875 3.7890625 C-6.38378906 3.07492188 -6.28710938 2.36078125 -6.1875 1.625 C-3.1875 -0.375 -3.1875 -0.375 0 0 Z " fill="#FFD700" transform="translate(43.1875,49.375)"/>
<path d="M0 0 C1 2 1 2 0.44140625 3.9453125 C0.15136719 4.66460938 -0.13867188 5.38390625 -0.4375 6.125 C-0.72496094 6.84945313 -1.01242188 7.57390625 -1.30859375 8.3203125 C-1.53675781 8.87460937 -1.76492187 9.42890625 -2 10 C-0.02 10.66 1.96 11.32 4 12 C2.13236819 17.72210596 0.14710968 23.37661751 -2 29 C-2.33 29 -2.66 29 -3 29 C-3.18451025 18.44191344 -3.18451025 18.44191344 -2 14 C-2.99 14.495 -2.99 14.495 -4 15 C-4.63019694 5.98468271 -4.63019694 5.98468271 -2 1.875 C-1.34 1.25625 -0.68 0.6375 0 0 Z " fill="#2E7D32" transform="translate(65,20)"/>
<path d="M0 0 C2.5625 2.25 2.5625 2.25 5 5 C5 7.77858383 4.27387266 8.69326262 2.4375 10.75 C1.7259375 11.36875 1.7259375 11.36875 1 12 C1 10.68 1 9.36 1 8 C0.01 8 -0.98 8 -2 8 C-1.7525 8.7425 -1.505 9.485 -1.25 10.25 C-1.12625 11.61125 -1.12625 11.61125 -1 13 C-2.9375 15.3125 -2.9375 15.3125 -5 17 C-5.3403125 15.6078125 -5.3403125 15.6078125 -5.6875 14.1875 C-7.2088437 10.49280817 -8.46352496 9.67517239 -12 8 C-11.34 7.34 -10.68 6.68 -10 6 C-9.67 6.33 -9.34 6.66 -9 7 C-7.00041636 7.04080783 -4.99954746 7.04254356 -3 7 C-2.01 4.69 -1.02 2.38 0 0 Z " fill="#2E7D32" transform="translate(78,12)"/>
<path d="M0 0 C2.5625 2.1875 2.5625 2.1875 5 5 C4.8125 7.8125 4.8125 7.8125 4 10 C-0.05431692 11.15837626 -2.21812119 10.83691257 -6 9 C-5.69381595 5.32579134 -5.24228216 4.21864487 -2.4375 1.6875 C-1.633125 1.130625 -0.82875 0.57375 0 0 Z " fill="#FFD700" transform="translate(76,34)"/>
<path d="M0 0 C5.78461538 3.32307692 5.78461538 3.32307692 6.875 6.75 C6.936875 7.86375 6.936875 7.86375 7 9 C6.360625 9.12375 5.72125 9.2475 5.0625 9.375 C4.381875 9.58125 3.70125 9.7875 3 10 C2.67 10.66 2.34 11.32 2 12 C-0.4375 11.3125 -0.4375 11.3125 -3 10 C-4.0625 7.6875 -4.0625 7.6875 -4 5 C-2.0625 2.1875 -2.0625 2.1875 0 0 Z " fill="#FFD700" transform="translate(43,34)"/>
<path d="M0 0 C6.4 0.36923077 6.4 0.36923077 9.4375 3.5625 C9.953125 4.366875 10.46875 5.17125 11 6 C4.72307692 10.06153846 4.72307692 10.06153846 1.0625 9.75 C0.381875 9.5025 -0.29875 9.255 -1 9 C-1.625 6.1875 -1.625 6.1875 -2 3 C-1.34 2.01 -0.68 1.02 0 0 Z " fill="#FFD700" transform="translate(80,26)"/>
<path d="M0 0 C3.03866799 -0.41137202 5.92159703 -0.13193156 9 0 C9 2.97 9 5.94 9 9 C3.62694301 8.7357513 3.62694301 8.7357513 1 8 C-1 5.4375 -1 5.4375 -2 3 C-1.34 2.01 -0.68 1.02 0 0 Z " fill="#FFD700" transform="translate(74,51)"/>
<path d="M0 0 C3.07692308 5.41538462 3.07692308 5.41538462 2.6875 8.375 C2.460625 8.91125 2.23375 9.4475 2 10 C-3.4611399 9.64766839 -3.4611399 9.64766839 -6 9 C-7.5 6.9375 -7.5 6.9375 -8 5 C-3.16129032 0 -3.16129032 0 0 0 Z " fill="#FFD700" transform="translate(54,21)"/>
<path d="M0 0 C-1 3 -1 3 -3.5 4.375 C-6.24852772 5.77933274 -6.24852772 5.77933274 -6.8125 8.6875 C-6.874375 9.450625 -6.93625 10.21375 -7 11 C-6.01 11.66 -5.02 12.32 -4 13 C-4.99 13.99 -5.98 14.98 -7 16 C-7 15.34 -7 14.68 -7 14 C-9.91488977 16.6234008 -11.88503898 19.71816394 -14 23 C-14.33 22.34 -14.66 21.68 -15 21 C-14.02127654 18.14366508 -12.97420075 15.40569126 -11.8125 12.625 C-11.50763672 11.85671875 -11.20277344 11.0884375 -10.88867188 10.296875 C-6.63987484 0 -6.63987484 0 0 0 Z " fill="#2E7D32" transform="translate(78,32)"/>
<path d="M0 0 C0.99 0 1.98 0 3 0 C3.66 1.32 4.32 2.64 5 4 C6.65 3.67 8.3 3.34 10 3 C10.33 4.32 10.66 5.64 11 7 C9.88625 6.938125 8.7725 6.87625 7.625 6.8125 C5.830625 6.9053125 5.830625 6.9053125 4 7 C3.01 8.485 3.01 8.485 2 10 C0.68 9.67 -0.64 9.34 -2 9 C-1.67 8.443125 -1.34 7.88625 -1 7.3125 C0.1309601 4.69715478 0.15662974 2.8193354 0 0 Z " fill="#FFD700" transform="translate(76,20)"/>
<path d="M0 0 C2.31966166 2.84685749 3.91581154 5.4763875 5 9 C4.67 9.99 4.34 10.98 4 12 C3.54625 11.195625 3.0925 10.39125 2.625 9.5625 C1.25274335 6.91143428 1.25274335 6.91143428 -1 6 C-1.33 6.66 -1.66 7.32 -2 8 C-2.66 6.68 -3.32 5.36 -4 4 C-3.01 3.67 -2.02 3.34 -1 3 C-0.67 2.01 -0.34 1.02 0 0 Z " fill="#2E7D32" transform="translate(50,40)"/>
<path d="M0 0 C2.31 0.66 4.62 1.32 7 2 C6.814375 2.721875 6.62875 3.44375 6.4375 4.1875 C5.98004693 7.12826973 6.26483643 9.14103058 7 12 C6.01 12 5.02 12 4 12 C2.66666667 8 1.33333333 4 0 0 Z " fill="#FFD700" transform="translate(46,28)"/>
<path d="M0 0 C5.03985731 0.44469329 7.37634988 2.71343362 11 6 C10.01 6.33 9.02 6.66 8 7 C7.34 6.01 6.68 5.02 6 4 C2.91634129 3.7497843 2.91634129 3.7497843 0 4 C0 2.68 0 1.36 0 0 Z " fill="#2E7D32" transform="translate(33,23)"/>
<path d="M0 0 C1.32 0 2.64 0 4 0 C4.33 1.32 4.66 2.64 5 4 C2.69 3.67 0.38 3.34 -2 3 C-1.34 2.01 -0.68 1.02 0 0 Z " fill="#2E7D32" transform="translate(82,23)"/>
</svg>