<?xml version="1.0" standalone="no"?>
<!DOCTYPE svg PUBLIC "-//W3C//DTD SVG 20010904//EN"
 "http://www.w3.org/TR/2001/REC-SVG-20010904/DTD/svg10.dtd">
<svg version="1.0" xmlns="http://www.w3.org/2000/svg"
 width="300.000000pt" height="300.000000pt" viewBox="0 0 300.000000 300.000000"
 preserveAspectRatio="xMidYMid meet">
<metadata>
Created by potrace 1.10, written by Peter Selinger 2001-2011
</metadata>
<g transform="translate(0.000000,300.000000) scale(0.100000,-0.100000)"
fill="#000000" stroke="none">
<path d="M1460 2791 c-5 -11 -10 -84 -10 -166 0 -82 5 -155 10 -166 7 -12 21
-19 40 -19 19 0 33 7 40 19 13 26 13 306 0 332 -7 12 -21 19 -40 19 -19 0 -33
-7 -40 -19z m50 -128 c0 -43 -5 -85 -10 -93 -6 -10 -9 15 -8 78 0 50 5 92 9
92 5 0 9 -35 9 -77z"/>
<path d="M882 2548 c-21 -21 -13 -51 41 -143 47 -80 57 -90 84 -93 24 -2 34 2
43 18 10 19 4 35 -47 123 -47 82 -63 103 -83 105 -14 2 -31 -3 -38 -10z m72
-88 c26 -40 49 -90 42 -90 -6 0 -76 113 -76 122 0 15 7 8 34 -32z"/>
<path d="M2037 2523 c-13 -21 -40 -68 -61 -105 -31 -56 -35 -70 -26 -88 9 -16
19 -20 43 -18 27 3 37 13 84 93 54 92 62 122 41 143 -24 24 -57 14 -81 -25z
m43 -30 c0 -5 -18 -37 -40 -73 -22 -36 -40 -58 -40 -50 0 9 16 41 36 73 34 55
44 66 44 50z"/>
<path d="M372 2168 c-17 -17 -15 -53 6 -70 9 -8 74 -48 144 -87 110 -63 129
-71 148 -61 16 9 20 19 18 43 -3 29 -14 37 -138 109 -138 80 -157 87 -178 66z
m217 -133 c23 -14 41 -31 41 -38 0 -8 -2 -9 -8 -1 -4 6 -23 19 -42 29 -68 33
-160 90 -160 98 0 9 94 -40 169 -88z"/>
<path d="M2450 2102 c-124 -72 -135 -80 -138 -109 -2 -24 2 -34 18 -43 19 -10
38 -2 148 61 70 39 135 79 145 87 31 27 16 82 -23 82 -8 0 -76 -35 -150 -78z
m130 13 c-7 -8 -16 -15 -21 -15 -5 0 -39 -18 -75 -41 -37 -22 -79 -45 -93 -50
-47 -18 -3 15 94 70 93 53 116 61 95 36z"/>
<path d="M1412 2150 c-243 -37 -450 -206 -528 -429 -64 -185 -47 -381 49 -551
39 -71 166 -198 237 -237 310 -175 684 -82 884 219 134 201 134 479 0 695
-133 213 -402 341 -642 303z m206 -45 c4 -6 22 -11 40 -11 46 -3 167 -63 233
-117 152 -124 231 -301 224 -500 -8 -209 -107 -382 -288 -502 -30 -20 -61 -37
-68 -39 -8 -1 -18 -4 -24 -8 -5 -3 -37 -14 -70 -23 -91 -27 -249 -25 -345 4
-254 78 -437 323 -438 587 -2 267 174 509 432 594 36 11 90 4 80 -11 -3 -5
-17 -9 -32 -9 -36 0 -143 -34 -145 -46 -1 -5 -8 -8 -15 -6 -8 2 -11 -1 -7 -7
3 -6 -1 -11 -9 -11 -29 0 -186 -152 -186 -180 0 -6 -4 -10 -10 -10 -5 0 -10
-9 -10 -21 0 -13 -4 -18 -12 -13 -8 5 -9 2 -5 -9 3 -9 2 -19 -3 -22 -5 -3 -14
-31 -21 -63 -7 -31 -16 -62 -21 -68 -5 -7 -10 -64 -11 -128 -1 -64 0 -112 1
-106 6 17 22 0 22 -23 0 -26 32 -121 43 -125 4 -2 7 -11 7 -19 0 -38 150 -189
224 -225 122 -60 174 -73 291 -73 108 0 117 1 215 36 88 30 134 60 205 134 72
74 76 80 103 131 92 177 95 366 10 544 -48 100 -145 210 -218 247 -19 10 -37
21 -40 24 -8 9 -106 39 -127 39 -11 0 -24 5 -30 11 -7 7 -44 11 -95 11 -46 -1
-96 1 -113 5 l-30 6 25 8 c34 11 210 5 218 -6z m51 -70 c234 -74 391 -286 391
-530 0 -159 -53 -289 -165 -400 -111 -112 -236 -165 -390 -165 -237 0 -437
134 -527 353 -36 87 -49 239 -28 328 74 320 407 512 719 414z"/>
<path d="M1360 1989 c-14 -25 11 -69 39 -69 21 0 51 30 51 51 0 41 -71 55 -90
18z"/>
<path d="M1214 1928 c-94 -70 -169 -168 -200 -260 -16 -48 -16 -51 4 -70 33
-33 56 -16 101 75 39 81 78 127 172 198 31 24 33 28 22 52 -16 34 -58 36 -99
5z m56 -18 c0 -5 -17 -24 -37 -42 -76 -68 -93 -85 -93 -97 0 -6 -4 -11 -9 -11
-5 0 -19 -25 -32 -56 -27 -64 -59 -91 -59 -49 0 14 9 34 20 45 11 11 20 22 20
25 0 3 0 9 0 13 0 5 8 17 18 28 9 10 32 38 50 61 18 23 42 45 53 48 10 4 17
11 14 16 -4 5 3 9 14 9 12 0 21 5 21 10 0 6 5 10 10 10 6 0 10 -4 10 -10z"/>
<path d="M297 1532 c-22 -24 -21 -45 1 -65 15 -14 40 -17 121 -17 118 0 141 8
141 50 0 42 -23 50 -143 50 -88 0 -106 -3 -120 -18z m123 -34 c0 -4 -16 -8
-35 -8 -19 0 -35 4 -35 8 0 5 16 9 35 9 19 0 35 -4 35 -9z"/>
<path d="M2458 1539 c-25 -14 -24 -65 1 -79 11 -5 67 -10 124 -10 88 0 106 3
120 18 22 24 21 45 -1 65 -15 14 -40 17 -123 17 -57 0 -112 -5 -121 -11z m192
-40 c0 -5 -31 -9 -70 -9 -41 0 -70 4 -70 10 0 6 28 10 70 9 39 -1 70 -5 70
-10z"/>
<path d="M519 987 c-69 -39 -133 -78 -142 -86 -31 -25 -15 -81 23 -81 8 0 76
35 150 78 120 69 135 81 138 107 3 26 -17 55 -37 55 -3 0 -63 -33 -132 -73z
m80 -14 c-25 -16 -54 -34 -65 -40 -44 -29 -116 -64 -121 -59 -7 6 198 126 216
126 8 0 -5 -12 -30 -27z"/>
<path d="M2326 1047 c-12 -9 -17 -23 -14 -42 3 -26 18 -38 138 -107 74 -43
142 -78 150 -78 39 0 54 55 23 82 -19 16 -238 143 -263 153 -9 3 -24 -1 -34
-8z m139 -95 c44 -26 88 -51 98 -55 9 -3 17 -11 17 -16 0 -10 -31 -3 -40 9 -5
6 -98 59 -147 84 -22 11 -31 26 -15 26 4 0 43 -22 87 -48z"/>
<path d="M973 678 c-30 -40 -103 -178 -103 -195 0 -27 23 -45 52 -41 17 2 37
28 81 105 50 86 57 104 47 122 -12 24 -61 29 -77 9z m20 -65 c-9 -25 -54 -106
-64 -117 -28 -31 21 80 54 122 13 17 18 15 10 -5z"/>
<path d="M1950 670 c-10 -19 -4 -35 47 -123 60 -105 84 -125 119 -97 24 21 16
51 -39 145 -47 80 -57 90 -84 93 -24 2 -34 -2 -43 -18z m70 -50 c0 -5 14 -31
30 -57 31 -48 38 -69 20 -58 -11 7 -70 105 -70 118 0 4 5 7 10 7 6 0 10 -4 10
-10z"/>
<path d="M1460 541 c-5 -11 -10 -84 -10 -166 0 -82 5 -155 10 -166 14 -26 66
-26 80 0 13 26 13 306 0 332 -7 12 -21 19 -40 19 -19 0 -33 -7 -40 -19z m49
-155 c1 -69 -3 -118 -10 -121 -7 -5 -9 33 -8 114 0 67 5 121 9 121 5 0 9 -52
9 -114z"/>
</g>
</svg>